<svg width="32" height="33" viewBox="0 0 32 33" fill="none" xmlns="http://www.w3.org/2000/svg">
<path fill-rule="evenodd" clip-rule="evenodd" d="M12.6444 32.8477H19.6474V25.9315H32V19.551H0V25.9315H12.6444V32.8477Z" fill="#FFBDC8"/>
<path fill-rule="evenodd" clip-rule="evenodd" d="M24.997 0.847656C24.997 3.23742 24.0491 5.52934 22.3618 7.21916C20.6746 8.90899 18.3861 9.85828 16 9.85828C13.6139 9.85828 11.3254 8.90899 9.63819 7.21916C7.95093 5.52934 7.00305 3.23742 7.00305 0.847656H0C0 5.09757 1.68573 9.17334 4.68631 12.1785C7.68689 15.1836 11.7565 16.8719 16 16.8719C20.2435 16.8719 24.3131 15.1836 27.3137 12.1785C30.3143 9.17334 32 5.09757 32 0.847656H24.997Z" fill="#FFBDC8"/>
</svg>
