<svg width="24" height="25" viewBox="0 0 24 25" fill="none" xmlns="http://www.w3.org/2000/svg">
<path fill-rule="evenodd" clip-rule="evenodd" d="M9.48328 24.6444H14.7356V19.4573H24V14.6719H0V19.4573H9.48328V24.6444Z" fill="#FFBDC8"/>
<path fill-rule="evenodd" clip-rule="evenodd" d="M18.7477 0.644531C18.7477 2.43686 18.0368 4.1558 16.7714 5.42316C15.5059 6.69053 13.7896 7.4025 12 7.4025C10.2104 7.4025 8.49408 6.69053 7.22864 5.42316C5.9632 4.1558 5.25229 2.43686 5.25229 0.644531H0C0 3.83196 1.2643 6.8888 3.51473 9.14265C5.76517 11.3965 8.8174 12.6627 12 12.6627C15.1826 12.6627 18.2348 11.3965 20.4853 9.14265C22.7357 6.8888 24 3.83196 24 0.644531H18.7477Z" fill="#FFBDC8"/>
</svg>
