<svg width="33" height="33" viewBox="0 0 33 33" fill="none" xmlns="http://www.w3.org/2000/svg">
<path fill-rule="evenodd" clip-rule="evenodd" d="M16.5 0.543945C7.66344 0.543945 0.5 7.70739 0.5 16.5439C0.5 25.3805 7.66344 32.5439 16.5 32.5439C25.3366 32.5439 32.5 25.3805 32.5 16.5439C32.5 7.70739 25.3366 0.543945 16.5 0.543945ZM12.983 8.0623C13.8932 8.02088 14.184 8.01074 16.5016 8.01074H16.4989C18.8172 8.01074 19.1069 8.02088 20.0172 8.0623C20.9256 8.1039 21.5461 8.24772 22.0901 8.45875C22.6519 8.67653 23.1265 8.96809 23.6012 9.44276C24.0759 9.91707 24.3674 10.3932 24.5861 10.9544C24.7959 11.497 24.9399 12.1171 24.9826 13.0255C25.0234 13.9358 25.0341 14.2266 25.0341 16.5442C25.0341 18.8617 25.0234 19.1518 24.9826 20.0621C24.9399 20.9702 24.7959 21.5904 24.5861 22.1332C24.3674 22.6943 24.0759 23.1704 23.6012 23.6447C23.1271 24.1193 22.6517 24.4116 22.0906 24.6296C21.5477 24.8406 20.9269 24.9844 20.0184 25.026C19.1082 25.0674 18.8182 25.0776 16.5005 25.0776C14.1832 25.0776 13.8925 25.0674 12.9823 25.026C12.074 24.9844 11.4537 24.8406 10.9108 24.6296C10.3499 24.4116 9.87378 24.1193 9.39964 23.6447C8.92515 23.1704 8.63359 22.6943 8.41545 22.133C8.20461 21.5904 8.06078 20.9703 8.019 20.0619C7.97776 19.1517 7.96745 18.8617 7.96745 16.5442C7.96745 14.2266 7.97811 13.9356 8.01883 13.0254C8.05972 12.1173 8.20372 11.497 8.41527 10.9542C8.63394 10.3932 8.9255 9.91707 9.40017 9.44276C9.87449 8.96826 10.3506 8.6767 10.9118 8.45875C11.4544 8.24772 12.0745 8.1039 12.983 8.0623Z" fill="white"/>
<path fill-rule="evenodd" clip-rule="evenodd" d="M15.7352 9.54803C15.8839 9.5478 16.0438 9.54787 16.2163 9.54795L16.5008 9.54803C18.7792 9.54803 19.0492 9.55621 19.949 9.5971C20.781 9.63514 21.2325 9.77417 21.5333 9.89097C21.9316 10.0456 22.2155 10.2305 22.514 10.5292C22.8126 10.8279 22.9975 11.1123 23.1526 11.5105C23.2694 11.811 23.4086 12.2625 23.4464 13.0946C23.4873 13.9941 23.4962 14.2643 23.4962 16.5417C23.4962 18.8191 23.4873 19.0893 23.4464 19.9889C23.4084 20.8209 23.2694 21.2724 23.1526 21.5729C22.9979 21.9711 22.8126 22.2547 22.514 22.5531C22.2153 22.8518 21.9317 23.0367 21.5333 23.1914C21.2329 23.3087 20.781 23.4474 19.949 23.4854C19.0494 23.5263 18.7792 23.5352 16.5008 23.5352C14.2222 23.5352 13.9521 23.5263 13.0525 23.4854C12.2205 23.447 11.769 23.308 11.468 23.1912C11.0698 23.0365 10.7853 22.8516 10.4866 22.553C10.188 22.2543 10.0031 21.9706 9.84806 21.5722C9.73126 21.2717 9.59206 20.8201 9.55419 19.9881C9.5133 19.0886 9.50513 18.8184 9.50513 16.5396C9.50513 14.2608 9.5133 13.992 9.55419 13.0924C9.59224 12.2604 9.73126 11.8089 9.84806 11.5081C10.0027 11.1098 10.188 10.8254 10.4866 10.5267C10.7853 10.228 11.0698 10.0431 11.468 9.88812C11.7688 9.77079 12.2205 9.63212 13.0525 9.5939C13.8397 9.55834 14.1448 9.54768 15.7352 9.5459V9.54803ZM21.0565 10.9649C20.4911 10.9649 20.0325 11.423 20.0325 11.9885C20.0325 12.5539 20.4911 13.0125 21.0565 13.0125C21.6218 13.0125 22.0805 12.5539 22.0805 11.9885C22.0805 11.4232 21.6218 10.9645 21.0565 10.9645V10.9649ZM12.1184 16.5434C12.1184 14.1233 14.0805 12.1612 16.5005 12.1611C18.9206 12.1611 20.8822 14.1233 20.8822 16.5434C20.8822 18.9635 18.9208 20.9248 16.5007 20.9248C14.0806 20.9248 12.1184 18.9635 12.1184 16.5434Z" fill="white"/>
<path d="M16.5007 13.6989C18.0716 13.6989 19.3452 14.9723 19.3452 16.5434C19.3452 18.1142 18.0716 19.3879 16.5007 19.3879C14.9297 19.3879 13.6562 18.1142 13.6562 16.5434C13.6562 14.9723 14.9297 13.6989 16.5007 13.6989Z" fill="white"/>
</svg>
