<svg width="33" height="33" viewBox="0 0 33 33" fill="none" xmlns="http://www.w3.org/2000/svg">
<path fill-rule="evenodd" clip-rule="evenodd" d="M0.5 16.5439C0.5 25.3805 7.66344 32.5439 16.5 32.5439C25.3366 32.5439 32.5 25.3805 32.5 16.5439C32.5 7.70739 25.3366 0.543945 16.5 0.543945C7.66344 0.543945 0.5 7.70739 0.5 16.5439ZM13.5663 23.8776L13.8385 19.7991L13.8383 19.7989L21.2576 13.1036C21.5832 12.8146 21.1865 12.6737 20.7542 12.9358L11.5978 18.7125L7.64275 17.478C6.78863 17.2165 6.7825 16.6296 7.83451 16.2076L23.2465 10.2648C23.9504 9.94526 24.6298 10.4339 24.3611 11.5113L21.7364 23.8797C21.5532 24.7586 21.0221 24.9688 20.2863 24.5628L16.2881 21.6089L14.3663 23.4776C14.3602 23.4835 14.3542 23.4894 14.3482 23.4952C14.1333 23.7045 13.9554 23.8776 13.5663 23.8776Z" fill="white"/>
</svg>
