<svg width="33" height="33" viewBox="0 0 33 33" fill="none" xmlns="http://www.w3.org/2000/svg">
<path fill-rule="evenodd" clip-rule="evenodd" d="M16.5 0.543945C7.66344 0.543945 0.5 7.70739 0.5 16.5439C0.5 25.3805 7.66344 32.5439 16.5 32.5439C25.3366 32.5439 32.5 25.3805 32.5 16.5439C32.5 7.70739 25.3366 0.543945 16.5 0.543945ZM17.8035 21.5945C17.6458 21.7608 17.3378 21.7944 17.3378 21.7944H16.3177C16.3177 21.7944 14.0673 21.9271 12.0848 19.9017C9.92284 17.6918 8.01381 13.3074 8.01381 13.3074C8.01381 13.3074 7.90362 13.0198 8.02299 12.8813C8.15738 12.7248 8.52383 12.715 8.52383 12.715L10.9621 12.6994C10.9621 12.6994 11.1916 12.7363 11.3561 12.8551C11.4921 12.9534 11.5681 13.1361 11.5681 13.1361C11.5681 13.1361 11.9621 14.1145 12.4838 14.9994C13.503 16.7274 13.9771 17.1052 14.3227 16.92C14.8269 16.6504 14.6758 14.4774 14.6758 14.4774C14.6758 14.4774 14.685 13.6892 14.422 13.3377C14.2184 13.0657 13.8344 12.9862 13.6649 12.9641C13.5272 12.946 13.7526 12.633 14.0447 12.4929C14.4838 12.2823 15.2584 12.2701 16.1741 12.2791C16.8878 12.2864 17.0932 12.3299 17.372 12.3962C18.019 12.5495 17.9988 13.0407 17.9552 14.1008C17.9422 14.4179 17.9271 14.7858 17.9271 15.2108C17.9271 15.3063 17.9242 15.4081 17.9213 15.5128C17.9062 16.0559 17.8889 16.6778 18.2535 16.9093C18.4404 17.0273 18.897 16.9265 20.0398 15.0223C20.5815 14.1194 20.9872 13.0583 20.9872 13.0583C20.9872 13.0583 21.0765 12.869 21.2143 12.7879C21.3553 12.7051 21.5456 12.7305 21.5456 12.7305L24.1116 12.715C24.1116 12.715 24.8829 12.624 25.0073 12.9665C25.1383 13.3246 24.7193 14.162 23.6709 15.5336C22.6763 16.8351 22.1924 17.3142 22.2368 17.738C22.2693 18.0477 22.5839 18.3278 23.1876 18.8774C24.4478 20.026 24.7856 20.6303 24.8668 20.7755C24.8735 20.7875 24.8785 20.7964 24.8821 20.8021C25.4472 21.7223 24.2552 21.7944 24.2552 21.7944L21.9755 21.8255C21.9755 21.8255 21.4864 21.9206 20.842 21.4863C20.5044 21.259 20.1745 20.8878 19.8604 20.5342C19.3805 19.9942 18.9373 19.4954 18.559 19.6132C17.9237 19.8115 17.9429 21.1545 17.9429 21.1545C17.9429 21.1545 17.9479 21.4421 17.8035 21.5945Z" fill="white"/>
</svg>
