<svg width="33" height="33" viewBox="0 0 33 33" fill="none" xmlns="http://www.w3.org/2000/svg">
<path fill-rule="evenodd" clip-rule="evenodd" d="M0.5 16.5439C0.5 25.3805 7.66344 32.5439 16.5 32.5439C25.3366 32.5439 32.5 25.3805 32.5 16.5439C32.5 7.70739 25.3366 0.543945 16.5 0.543945C7.66344 0.543945 0.5 7.70739 0.5 16.5439ZM26.5417 15.9308C26.5396 21.1753 22.2733 25.4427 17.0276 25.4448H17.0237C15.4314 25.4443 13.8668 25.0448 12.4772 24.2868L7.43359 25.6098L8.78334 20.6797C7.95075 19.2368 7.51265 17.6002 7.51336 15.9233C7.51545 10.6776 11.7835 6.40983 17.0276 6.40983C19.5727 6.41093 21.9615 7.40174 23.7577 9.2001C25.554 10.9984 26.5427 13.3887 26.5417 15.9308Z" fill="white"/>
<path fill-rule="evenodd" clip-rule="evenodd" d="M9.71661 23.35L12.7095 22.5649L12.9983 22.7363C14.2124 23.4568 15.6042 23.838 17.0231 23.8385H17.0263C21.3848 23.8385 24.9322 20.2911 24.934 15.9308C24.9348 13.8178 24.1131 11.831 22.6201 10.3363C21.1271 8.84158 19.1416 8.01801 17.0295 8.01727C12.6676 8.01727 9.12014 11.5644 9.11841 15.9244C9.1178 17.4186 9.53587 18.8737 10.3274 20.1327L10.5155 20.4319L9.71661 23.35ZM21.4933 17.9792C21.6591 18.0593 21.771 18.1134 21.8188 18.1932C21.8782 18.2923 21.8782 18.7683 21.6802 19.3237C21.4821 19.879 20.5324 20.3858 20.0756 20.454C19.666 20.5153 19.1477 20.5408 18.5783 20.3598C18.233 20.2503 17.7902 20.104 17.2231 19.8591C14.9944 18.8967 13.4883 16.7367 13.2037 16.3285C13.1837 16.2999 13.1698 16.2799 13.162 16.2695L13.1601 16.2669C13.0343 16.0991 12.1913 14.9744 12.1913 13.8103C12.1913 12.7153 12.7292 12.1413 12.9768 11.8771C12.9938 11.859 13.0094 11.8424 13.0233 11.8271C13.2412 11.5891 13.4988 11.5296 13.6573 11.5296C13.8157 11.5296 13.9744 11.5311 14.1129 11.5381C14.13 11.5389 14.1478 11.5388 14.1661 11.5387C14.3047 11.5379 14.4774 11.5369 14.6478 11.9461C14.7133 12.1036 14.8092 12.3372 14.9104 12.5834C15.1149 13.0814 15.341 13.6317 15.3807 13.7113C15.4402 13.8303 15.4798 13.969 15.4005 14.1278C15.3886 14.1516 15.3776 14.174 15.3671 14.1955C15.3076 14.317 15.2638 14.4064 15.1628 14.5243C15.1231 14.5707 15.082 14.6207 15.041 14.6707C14.9592 14.7703 14.8774 14.8699 14.8062 14.9408C14.6872 15.0594 14.5633 15.188 14.702 15.426C14.8407 15.664 15.3178 16.4424 16.0245 17.0728C16.7842 17.7504 17.4444 18.0368 17.7791 18.182C17.8445 18.2103 17.8974 18.2333 17.9362 18.2527C18.1739 18.3718 18.3125 18.3518 18.4512 18.1932C18.5899 18.0346 19.0455 17.499 19.2039 17.2611C19.3624 17.0232 19.5209 17.0628 19.7388 17.1421C19.9568 17.2215 21.1255 17.7966 21.3632 17.9155C21.4097 17.9388 21.453 17.9597 21.4933 17.9792Z" fill="white"/>
</svg>
