<svg width="18" height="19" viewBox="0 0 18 19" fill="none" xmlns="http://www.w3.org/2000/svg">
<path d="M11.7611 4.17628L11.761 4.17611L11.7556 4.18123C11.0678 4.83758 10.132 5.20992 9.15302 5.21465L9.1509 5.2147C8.65114 5.22559 8.15435 5.14035 7.69066 4.96429C7.227 4.78823 6.80632 4.5251 6.4538 4.19113C6.10129 3.85718 5.82431 3.45937 5.63925 3.02195C5.4542 2.58455 5.36476 2.11641 5.37619 1.64574L5.37623 1.64574V1.64271V1.23193V1.10693H5.25123H1.00193H0.876928V1.23193V1.64126C0.853053 2.67893 1.05116 3.71027 1.45911 4.67309C1.86724 5.63635 2.47683 6.51085 3.25079 7.24406C4.02474 7.97727 4.94706 8.55404 5.96189 8.93995C6.97614 9.32563 8.06207 9.51277 9.15435 9.49026C10.2313 9.49988 11.2995 9.30586 12.2967 8.91942C13.2943 8.5328 14.2007 7.96125 14.9629 7.23797C16.5339 5.75744 17.4221 3.74552 17.4303 1.64319V1.64271V1.23193V1.10693H17.3053H13.056H12.931V1.23193V1.64271H12.931L12.931 1.64487C12.9393 2.12094 12.8393 2.59332 12.6377 3.03001C12.436 3.46672 12.1372 3.85776 11.7611 4.17628ZM10.994 5.94963C11.5762 5.7174 12.1014 5.37252 12.5358 4.93666C13.3285 4.19946 13.8279 3.22482 13.9493 2.17848H16.2169C16.0835 3.78936 15.3668 5.30992 14.1841 6.48125C12.8196 7.71898 11.002 8.41092 9.11022 8.41092C7.21845 8.41092 5.40096 7.71898 4.03644 6.48125C2.85375 5.30991 2.13699 3.78935 2.00355 2.17848H4.27122C4.39268 3.22514 4.89221 4.20006 5.6854 4.93735C6.13629 5.37541 6.67679 5.72087 7.27338 5.95274C7.86971 6.18451 8.50967 6.29795 9.15373 6.28623C9.78503 6.29648 10.4118 6.1819 10.994 5.94963Z" fill="#FFBDC8" stroke="#FFBDC8" stroke-width="0.25"/>
<path d="M8.06455 13.4731V13.3481H7.93955H1.99415V11.5442H16.3131V13.3481H10.4544H10.3294V13.4731V16.5521H8.06455V13.4731ZM1.00195 10.4727H0.876953V10.5977V13.8838V14.2946V14.4196H1.00195H6.94735V17.4987V17.6237H7.07235H11.3216H11.4466V17.4987V14.4196H17.3053H17.4303V14.2946V10.5977V10.4727H17.3053H1.00195Z" fill="#FFBDC8" stroke="#FFBDC8" stroke-width="0.25"/>
</svg>
